<svg preserveAspectRatio="none" width="100%" height="100%" overflow="visible" style="display: block;" viewBox="0 0 2311.18 5496.33" fill="none" xmlns="http://www.w3.org/2000/svg">
<g id="Light" style="mix-blend-mode:overlay">
<path d="M1945.33 0H365.843C163.81 0 0 188.953 0 421.994V5074.34C0 5307.38 163.81 5496.33 365.843 5496.33H1945.33C2147.37 5496.33 2311.18 5307.38 2311.18 5074.34V421.994C2311.18 188.953 2147.37 0 1945.33 0ZM2300.03 5071C2300.03 5298.9 2139.9 5483.61 1942.32 5483.61H368.852C171.277 5483.61 11.1436 5298.9 11.1436 5071V425.465C11.1436 197.565 171.277 12.8539 368.852 12.8539H1942.44C2140.01 12.8539 2300.14 197.565 2300.14 425.465V5071.13L2300.03 5071Z" fill="var(--fill-0, black)"/>
</g>
</svg>
