<svg preserveAspectRatio="none" width="100%" height="100%" overflow="visible" style="display: block;" viewBox="0 0 24 24" fill="none" xmlns="http://www.w3.org/2000/svg">
<g id="ChatCircle">
<g id="Vector">
</g>
<path id="Vector_2" d="M4.25571 16.5937C3.13904 14.7097 2.74845 12.4829 3.15725 10.3313C3.56605 8.17973 4.74614 6.25136 6.47598 4.90821C8.20581 3.56506 10.3664 2.89951 12.5522 3.03649C14.738 3.17347 16.7986 4.10357 18.3472 5.65218C19.8958 7.20079 20.8259 9.2614 20.9629 11.4472C21.0999 13.6329 20.4343 15.7936 19.0912 17.5234C17.748 19.2532 15.8196 20.4333 13.6681 20.8421C11.5165 21.2509 9.2897 20.8603 7.40571 19.7437V19.7437L4.29321 20.6249C4.16569 20.6622 4.03049 20.6645 3.90177 20.6316C3.77305 20.5987 3.65556 20.5317 3.56161 20.4378C3.46766 20.3438 3.40071 20.2263 3.36779 20.0976C3.33486 19.9689 3.33717 19.8337 3.37446 19.7062L4.25571 16.5937Z" stroke="var(--stroke-0, #E1E1E9)" stroke-linecap="round" stroke-linejoin="round"/>
</g>
</svg>
